PathFileType	4	(X/Y/Z)	SUBJ63_3_walk_RCNL2025.trc
DataRate	CameraRate	NumFrames	NumMarkers	Units	OrigDataRate	OrigDataStartFrame	OrigNumFrames
100	100	4	25	mm	100	86	228
Frame#	Time	R_Shoulder			L_Shoulder			C7			J_Notch			R_Elbow			L_Elbow			R_Wrist			L_Wrist			R_Asis			L_Asis			Sacral			Thoracic			Sternum			R_Thigh_Lateral			R_Knee_Lateral			R_Shank_Lateral			R_Ankle_Lateral			R_Heel			R_Toe			L_Thigh_Lateral			L_Knee_Lateral			L_Shank_Lateral			L_Ankle_Lateral			L_Heel			L_Toe		
		X1	Y1	Z1	X2	Y2	Z2	X3	Y3	Z3	X4	Y4	Z4	X5	Y5	Z5	X6	Y6	Z6	X7	Y7	Z7	X8	Y8	Z8	X9	Y9	Z9	X10	Y10	Z10	X11	Y11	Z11	X12	Y12	Z12	X13	Y13	Z13	X14	Y14	Z14	X15	Y15	Z15	X16	Y16	Z16	X17	Y17	Z17	X18	Y18	Z18	X19	Y19	Z19	X20	Y20	Z20	X21	Y21	Z21	X22	Y22	Z22	X23	Y23	Z23	X24	Y24	Z24	X25	Y25	Z25
86	0.85000000	225.514221	1295.583618	-133.882370	230.089447	1287.137817	-469.429932	150.541763	1356.270996	-308.959595	265.634735	1247.648560	-302.288940	188.862534	1019.679138	-19.844591	143.110260	997.593445	-557.018127	271.214066	807.483643	16.567410	201.744217	786.632751	-613.660309	260.046326	849.521790	-167.134384	295.605957	841.074402	-414.804657	54.117203	855.291260	-330.635071	67.416542	1175.224854	-299.488251	308.009430	1068.344727	-289.975983	278.018311	517.479309	-98.839203	291.024719	464.090851	-142.994141	201.066086	323.782806	-97.969910	104.995522	134.539841	-173.003540	71.350311	150.802063	-229.664627	197.482590	68.428215	-162.466248	219.780670	457.317291	-480.341217	206.239471	436.302094	-411.185547	184.429535	243.540024	-436.304504	138.879425	57.206234	-352.334351	84.481133	54.469082	-303.740112	253.336121	40.152447	-341.824066
87	0.86000000	237.694260	1295.727661	-132.999832	245.129501	1288.676758	-468.734100	164.520981	1356.360107	-308.553986	279.766907	1248.319824	-301.158447	200.404816	1019.217407	-19.944916	163.552750	997.820557	-557.952087	281.720459	806.764557	17.140160	231.836266	788.650269	-611.106506	275.133789	851.015259	-168.165070	308.845245	840.279297	-415.261566	68.395424	855.661255	-329.477997	81.909096	1175.008545	-300.596344	322.574890	1069.883545	-289.146332	298.602112	519.956360	-99.936050	311.919891	466.240417	-144.404144	229.925842	319.796661	-98.543785	148.703552	122.999161	-172.740677	114.302559	136.127441	-229.679245	246.249176	64.904724	-161.079346	222.839981	457.433990	-480.412445	209.122894	436.322418	-411.217041	185.206406	243.876480	-436.399811	139.070847	57.654720	-352.010864	84.992279	55.193291	-303.099243	253.680328	40.059864	-341.871704
88	0.87000000	249.913269	1295.372803	-132.175079	260.132660	1289.677490	-468.085571	178.525192	1355.993530	-308.198212	293.908173	1248.515381	-300.079803	212.064545	1018.351624	-19.919287	184.032654	997.620300	-558.840454	292.458252	805.711670	17.917018	261.822296	790.751007	-608.455872	290.263550	851.750610	-169.242783	322.114868	838.964722	-415.830383	82.700142	855.534912	-328.064178	96.374771	1174.391846	-301.695770	337.230560	1070.909180	-288.348969	318.486023	521.783875	-100.968903	331.909546	467.561920	-145.711761	258.763245	314.765350	-99.167282	193.251480	111.922302	-172.767792	158.568832	121.838745	-230.103760	295.141785	62.298813	-159.549179	226.248352	457.540741	-480.464966	212.374649	436.350616	-411.244019	186.144135	244.266205	-436.447327	139.360260	58.200497	-351.493835	85.651657	56.118141	-302.257751	254.094284	39.962738	-341.937500
89	0.88000000	262.240417	1294.526978	-131.402847	275.132782	1290.127197	-467.471161	192.575684	1355.203735	-307.876556	308.068451	1248.235962	-299.061798	223.860184	1017.102478	-19.770418	204.557526	997.003845	-559.648499	303.424866	804.332306	18.881178	291.625748	792.922760	-605.717316	305.424835	851.686523	-170.314301	335.432220	837.158936	-416.535950	97.037781	854.956848	-326.456940	110.818008	1173.408447	-302.722046	351.959015	1071.353760	-287.575287	337.573822	522.845886	-101.933403	351.000427	468.032440	-146.900040	287.560120	308.972229	-99.819092	238.470596	101.633873	-173.019989	203.946045	108.336098	-230.866959	343.948547	60.822285	-157.933823	230.063477	457.614746	-480.476257	216.067215	436.385468	-411.227386	187.264236	244.720322	-436.388855	139.752182	58.859844	-350.739197	86.475075	57.272823	-301.140808	254.584579	39.868546	-342.007690
